# xmcd
#
# Track frame offsets: 
#        150
#        27691
#        52550
#        79074
#        101578
#        128408
#        154354
#        178384
#        195573
#        228060
#        266307
#        287153
#        306655
#
# Disc length: 4399 seconds
#
# Revision: 0
# Processed by: cddbd v1.5.2PL0 Copyright (c) Steve Scherf et al.
# Submitted via: ExactAudioCopy v1.3
#
DISCID=ac112d0d
DTITLE=Big Mike and The Booty Papas - The Best Of Big Mike And The Booty
DTITLE=Papas
DYEAR=2003
DGENRE=Blues
TTITLE0=Pig Snot Juke
TTITLE1=Last Meal
TTITLE2=Curtis Lowe
TTITLE3=Treadin' Water
TTITLE4=Blind Man
TTITLE5=Black Drawers
TTITLE6=Rats and Roches
TTITLE7=She Caught the Kati
TTITLE8=C.c.'s Travling Blues
TTITLE9=Trouble Blues
TTITLE10=Flying Pig
TTITLE11=You Win Again
TTITLE12=I May Be Crazy
EXTD=
EXTT0=
EXTT1=
EXTT2=
EXTT3=
EXTT4=
EXTT5=
EXTT6=
EXTT7=
EXTT8=
EXTT9=
EXTT10=
EXTT11=
EXTT12=
PLAYORDER=
